<svg xmlns="http://www.w3.org/2000/svg" version="1.1" xmlns:xlink="http://www.w3.org/1999/xlink" xmlns:svgjs="http://svgjs.dev/svgjs" width="1440" height="560" preserveAspectRatio="none" viewBox="0 0 1440 560"><g mask="url(&quot;#SvgjsMask1002&quot;)" fill="none"><path d="M0 24.35C1.43 10.56 1.64 2.25 14.55 0C71.64 -9.93 77.28 0 140 0C210 0 210 0 280 0C350 0 350 0 420 0C469.08 0 477.62 -16.73 518.16 0C547.62 12.16 538.14 57.78 560 57.78C583 57.78 576.46 12.97 607.89 0C646.46 -15.92 653.94 0 700 0C749.3 0 753.95 -12.02 798.59 0C823.95 6.83 819.86 18.25 840 37.69C892.38 88.25 936.95 82.1 943.64 140C950.95 203.26 857.39 233.53 868 280C875.57 313.19 925.46 284.16 980 299.31C1051.46 319.16 1060.56 356.19 1120 350C1153.35 346.53 1138.64 311.64 1165.58 280C1208.64 229.43 1207.89 226.19 1260 185.58C1297.71 156.19 1338.94 176.39 1345.22 140C1354.94 83.6 1276.09 40.67 1292 0C1303.48 -29.33 1346 0 1400 0C1470 0 1501.38 -31.38 1540 0C1571.38 25.5 1564.26 74.93 1540 113.75C1520.51 144.93 1455.9 109.31 1452.5 140C1446.69 192.44 1483.04 213.8 1521.58 280C1526.79 288.95 1538.71 280.5 1540 290.29C1547.92 350.5 1540 355.14 1540 420C1540 490 1575 525 1540 560C1505 595 1470 560 1400 560C1330 560 1330 560 1260 560C1190 560 1190 560 1120 560C1050 560 1050 560 980 560C910 560 910 560 840 560C770 560 770 560 700 560C662.56 560 625.12 574.32 625.12 560C625.12 540.78 669.18 531.54 700 492.92C725.04 461.54 736.84 453.77 736.84 420C736.84 397.86 724.46 385.76 700 381.11C636.04 368.96 628.22 374.86 560 386.4C513.22 394.31 481.96 385.16 470 420C452.17 471.96 516.44 515.17 500.43 560C491.44 585.17 460.22 560 420 560C354.83 560 352.91 564.52 289.66 560C282.91 559.52 284.97 550 280 550C274.75 550 276.38 559.49 269.23 560C206.38 564.49 204.62 560 140 560C75.38 560 71.83 566.79 10.77 560C1.83 559.01 0.71 553.68 0 544.44C-4.67 483.68 0 482.22 0 420C0 381.38 -19.9 370.31 0 342.76C30.66 300.31 101.11 305.89 101.11 280C101.11 256.67 25.63 279.79 0 244.31C-24.93 209.79 0 192.15 0 140C0 82.18 -5.84 80.56 0 24.35" stroke="rgba(247, 242, 238, 0.12)" stroke-width="2"></path><path d="M140 123.85C124.95 123.85 113.19 126.73 113.19 140C113.19 179.81 112.3 230 140 230C182.98 230 254.55 169.58 254.55 140C254.55 116.51 195.63 123.85 140 123.85" stroke="rgba(247, 242, 238, 0.12)" stroke-width="2"></path><path d="M420 131.38C374.37 131.38 326.67 132.34 326.67 140C326.67 147.85 377.99 162.4 420 162.4C431.48 162.4 433.66 149.6 433.66 140C433.66 134.09 427.86 131.38 420 131.38" stroke="rgba(247, 242, 238, 0.12)" stroke-width="2"></path><path d="M1120 123.67C1055.96 123.67 989.82 35.85 989.82 0C989.82 -25.99 1054.91 0 1120 0C1180.82 0 1241.64 -25.49 1241.64 0C1241.64 36.35 1181.87 123.67 1120 123.67" stroke="rgba(247, 242, 238, 0.12)" stroke-width="2"></path><path d="M1260 403.03C1247.4 403.03 1228.89 413.53 1228.89 420C1228.89 425.85 1245.58 427.67 1260 427.67C1264.73 427.67 1267.18 424.47 1267.18 420C1267.18 412.15 1266.55 403.03 1260 403.03" stroke="rgba(247, 242, 238, 0.12)" stroke-width="2"></path><path d="M0 100.43C11.29 100.43 38.72 120.71 38.72 140C38.72 158.34 11.54 175.69 0 175.69C-7.82 175.69 0 157.85 0 140C0 120.22 -8.07 100.43 0 100.43" stroke="rgba(247, 242, 238, 0.12)" stroke-width="2"></path><path d="M140 78.97C97.24 78.97 60 23.07 60 0C60 -16.42 100 0 140 0C193.11 0 246.21 -17.58 246.21 0C246.21 21.91 190.34 78.97 140 78.97" stroke="rgba(247, 242, 238, 0.12)" stroke-width="2"></path><path d="M420 77.54C374.93 77.54 319.2 21.63 319.2 0C319.2 -17.14 369.6 0 420 0C448.97 0 477.93 -14.52 477.93 0C477.93 24.25 454.3 77.54 420 77.54" stroke="rgba(247, 242, 238, 0.12)" stroke-width="2"></path><path d="M519.02 140C533.38 120.77 543.18 130.78 560 113.33C610.64 60.78 600.63 43.16 653.95 0C670.63 -13.5 676.97 0 700 0C724.65 0 729.23 -11.84 749.3 0C799.23 29.44 795.33 40.56 840 82.56C869.77 110.56 898.18 108.9 898.18 140C898.18 177.62 870.64 181.24 840 220C815.3 251.24 787.5 251.37 787.5 280C787.5 305.72 811.13 307.7 840 328.7C907.38 377.7 980 374.11 980 420C980 466.09 901.45 512.65 840 512.65C798.29 512.65 809.76 463.92 773.68 420C739.76 378.7 746.31 359.62 700 342.22C639.47 319.48 626.58 355.4 560 339.73C494.36 324.29 444.96 325.79 435.56 280C424.47 225.93 471.16 204.1 519.02 140" stroke="rgba(247, 242, 238, 0.12)" stroke-width="2"></path><path d="M1120 65.33C1086.17 65.33 1051.23 18.94 1051.23 0C1051.23 -13.73 1085.61 0 1120 0C1152.13 0 1184.26 -13.46 1184.26 0C1184.26 19.2 1152.68 65.33 1120 65.33" stroke="rgba(247, 242, 238, 0.12)" stroke-width="2"></path><path d="M1400 15.56C1392.28 11.91 1392 5.34 1392 0C1392 -2.44 1396 0 1400 0C1470 0 1493.33 -23.33 1540 0C1563.33 11.67 1562.25 67.53 1540 70C1492.25 75.31 1466.28 46.91 1400 15.56" stroke="rgba(247, 242, 238, 0.12)" stroke-width="2"></path><path d="M1246.98 280C1246.98 273.06 1251.33 269.63 1260 266.98C1327.84 246.29 1338.75 228.62 1400 233.33C1423.48 235.13 1408.22 263.54 1429.47 280C1478.22 317.76 1505.84 298.5 1540 341.76C1561.11 368.5 1540 380.88 1540 420C1540 490 1556.58 506.58 1540 560C1534.85 576.58 1517.08 565.95 1496.55 560C1447.08 545.66 1444.69 519.42 1400 519.42C1374.54 519.42 1383.04 552.23 1356.25 560C1313.04 572.52 1308.13 560 1260 560C1190 560 1190 560 1120 560C1075.45 560 1030.91 580.04 1030.91 560C1030.91 529.79 1064.1 480.08 1120 459.49C1178.65 437.89 1197.67 488.44 1260 475.62C1293.69 468.69 1312.05 452.44 1312.05 420C1312.05 363.11 1288.04 357.31 1260 296.97C1255.51 287.31 1246.98 288.06 1246.98 280" stroke="rgba(247, 242, 238, 0.12)" stroke-width="2"></path><path d="M63 420C63 386.2 97.08 379.55 140 370.32C205.58 356.22 224.46 354.78 280 373.33C298.83 379.62 288.75 398.69 288.75 420C288.75 424.52 283.81 421.71 280 425C209.44 485.88 200.21 549.72 140 548.33C91.71 547.22 63 475.2 63 420" stroke="rgba(247, 242, 238, 0.12)" stroke-width="2"></path><path d="M410.34 560C410.34 554.53 415.93 543.53 420 543.53C423.74 543.53 425.96 553.86 425.96 560C425.96 562.09 422.98 560 420 560C415.17 560 410.34 562.77 410.34 560" stroke="rgba(247, 242, 238, 0.12)" stroke-width="2"></path><path d="M140 34.1C121.53 34.1 105.45 9.96 105.45 0C105.45 -7.09 122.73 0 140 0C162.93 0 185.86 -7.59 185.86 0C185.86 9.46 161.74 34.1 140 34.1" stroke="rgba(247, 242, 238, 0.12)" stroke-width="2"></path><path d="M420 23.69C406.23 23.69 389.2 6.61 389.2 0C389.2 -5.24 404.6 0 420 0C428.85 0 437.7 -4.44 437.7 0C437.7 7.41 430.48 23.69 420 23.69" stroke="rgba(247, 242, 238, 0.12)" stroke-width="2"></path><path d="M791 140C791 132.59 817.2 127.44 840 127.44C848.06 127.44 852.73 133.2 852.73 140C852.73 148.23 849.07 157.5 840 157.5C818.2 157.5 791 147.62 791 140" stroke="rgba(247, 242, 238, 0.12)" stroke-width="2"></path><path d="M1120 7C1116.37 7 1112.63 2.03 1112.63 0C1112.63 -1.47 1116.32 0 1120 0C1123.45 0 1126.89 -1.44 1126.89 0C1126.89 2.06 1123.5 7 1120 7" stroke="rgba(247, 242, 238, 0.12)" stroke-width="2"></path><path d="M1540 26.25C1520.67 26.25 1484.74 6.9 1484.74 0C1484.74 -6.23 1521.27 -8.9 1540 0C1548.9 4.23 1548.3 26.25 1540 26.25" stroke="rgba(247, 242, 238, 0.12)" stroke-width="2"></path><path d="M532.78 280C532.78 259.83 536.38 241.59 560 231C619.99 204.09 645.14 189.44 700 205C731.54 213.94 732.81 247.04 732.81 280C732.81 296.21 719.26 301.87 700 303.33C632.85 308.41 628.81 302.67 560 293.07C545.2 291.01 532.78 290.87 532.78 280" stroke="rgba(247, 242, 238, 0.12)" stroke-width="2"></path><path d="M810.53 420C810.53 399.66 821.52 379.42 840 379.42C867.37 379.42 902.22 399.61 902.22 420C902.22 440.49 867.31 461.18 840 461.18C821.47 461.18 810.53 440.54 810.53 420" stroke="rgba(247, 242, 238, 0.12)" stroke-width="2"></path><path d="M1356.92 420C1356.92 381.63 1365.13 343.15 1400 338.05C1456.67 329.77 1480.57 358.45 1540 393.24C1550.57 399.43 1540 406.62 1540 420C1540 451.38 1561.59 475.25 1540 482.76C1491.59 499.6 1462.61 490.16 1400 468.7C1371.07 458.78 1356.92 446.95 1356.92 420" stroke="rgba(247, 242, 238, 0.12)" stroke-width="2"></path><path d="M1110.45 560C1110.45 556.76 1113.13 550.9 1120 549.23C1187.91 532.68 1194.61 519.68 1260 523.56C1285.39 525.07 1301.56 549.6 1301.56 560C1301.56 567.82 1280.78 560 1260 560C1190 560 1190 560 1120 560C1115.22 560 1110.45 562.15 1110.45 560" stroke="rgba(247, 242, 238, 0.12)" stroke-width="2"></path></g><defs><mask id="SvgjsMask1002"><rect width="1440" height="560" fill="#ffffff"></rect></mask></defs></svg>